<mxfile host="app.diagrams.net" modified="2024-06-10T18:56:14.596Z" agent="Mozilla/5.0 (Windows NT 10.0; Win64; x64) AppleWebKit/537.36 (KHTML, like Gecko) Chrome/125.0.0.0 Safari/537.36" etag="HaiXxwQx783KAUEIpkGG" version="24.5.2" type="device">
  <diagram name="Page-1" id="fydVLxd786Y8-frbGGSZ">
    <mxGraphModel dx="1434" dy="738" grid="1" gridSize="10" guides="1" tooltips="1" connect="1" arrows="1" fold="1" page="1" pageScale="1" pageWidth="850" pageHeight="1100" math="0" shadow="0">
      <root>
        <mxCell id="0" />
        <mxCell id="1" parent="0" />
        <mxCell id="2ytM8fm2wGrNWbEA7cSL-38" value="Path4" style="whiteSpace=wrap;strokeWidth=2;verticalAlign=top;" vertex="1" parent="1">
          <mxGeometry x="20" y="20" width="101" height="418" as="geometry" />
        </mxCell>
        <mxCell id="2ytM8fm2wGrNWbEA7cSL-39" value="t" style="whiteSpace=wrap;strokeWidth=2;" vertex="1" parent="1">
          <mxGeometry x="63" y="170" width="22" height="34" as="geometry" />
        </mxCell>
        <mxCell id="2ytM8fm2wGrNWbEA7cSL-40" value="r" style="whiteSpace=wrap;strokeWidth=2;" vertex="1" parent="1">
          <mxGeometry x="63" y="45" width="22" height="34" as="geometry" />
        </mxCell>
        <mxCell id="2ytM8fm2wGrNWbEA7cSL-41" value="y" style="whiteSpace=wrap;strokeWidth=2;" vertex="1" parent="1">
          <mxGeometry x="61" y="270" width="25" height="34" as="geometry" />
        </mxCell>
        <mxCell id="2ytM8fm2wGrNWbEA7cSL-42" value="p" style="whiteSpace=wrap;strokeWidth=2;" vertex="1" parent="1">
          <mxGeometry x="62" y="379" width="24" height="34" as="geometry" />
        </mxCell>
        <mxCell id="2ytM8fm2wGrNWbEA7cSL-43" value="Path3" style="whiteSpace=wrap;strokeWidth=2;verticalAlign=top;" vertex="1" parent="1">
          <mxGeometry x="577" y="20" width="94" height="418" as="geometry" />
        </mxCell>
        <mxCell id="2ytM8fm2wGrNWbEA7cSL-44" value="g" style="whiteSpace=wrap;strokeWidth=2;" vertex="1" parent="1">
          <mxGeometry x="612" y="170" width="23" height="34" as="geometry" />
        </mxCell>
        <mxCell id="2ytM8fm2wGrNWbEA7cSL-45" value="f" style="whiteSpace=wrap;strokeWidth=2;" vertex="1" parent="1">
          <mxGeometry x="613" y="45" width="22" height="34" as="geometry" />
        </mxCell>
        <mxCell id="2ytM8fm2wGrNWbEA7cSL-46" value="h" style="whiteSpace=wrap;strokeWidth=2;" vertex="1" parent="1">
          <mxGeometry x="612" y="270" width="24" height="34" as="geometry" />
        </mxCell>
        <mxCell id="2ytM8fm2wGrNWbEA7cSL-47" value="s" style="whiteSpace=wrap;strokeWidth=2;" vertex="1" parent="1">
          <mxGeometry x="613" y="379" width="22" height="34" as="geometry" />
        </mxCell>
        <mxCell id="2ytM8fm2wGrNWbEA7cSL-48" value="Path2" style="whiteSpace=wrap;strokeWidth=2;verticalAlign=top;" vertex="1" parent="1">
          <mxGeometry x="152" y="354" width="131" height="84" as="geometry" />
        </mxCell>
        <mxCell id="2ytM8fm2wGrNWbEA7cSL-49" value="Step v" style="whiteSpace=wrap;strokeWidth=2;" vertex="1" parent="1">
          <mxGeometry x="187" y="379" width="61" height="34" as="geometry" />
        </mxCell>
        <mxCell id="2ytM8fm2wGrNWbEA7cSL-50" value="Path1" style="whiteSpace=wrap;strokeWidth=2;verticalAlign=top;" vertex="1" parent="1">
          <mxGeometry x="303" y="129" width="243" height="418" as="geometry" />
        </mxCell>
        <mxCell id="2ytM8fm2wGrNWbEA7cSL-51" value="b" style="whiteSpace=wrap;strokeWidth=2;" vertex="1" parent="1">
          <mxGeometry x="450" y="270" width="24" height="34" as="geometry" />
        </mxCell>
        <mxCell id="2ytM8fm2wGrNWbEA7cSL-52" value="&lt;b&gt;The Step 1&lt;/b&gt;&#xa;---&#xa;This is the first step a" style="whiteSpace=wrap;strokeWidth=2;" vertex="1" parent="1">
          <mxGeometry x="338" y="154" width="173" height="66" as="geometry" />
        </mxCell>
        <mxCell id="2ytM8fm2wGrNWbEA7cSL-53" value="c" style="whiteSpace=wrap;strokeWidth=2;" vertex="1" parent="1">
          <mxGeometry x="450" y="379" width="23" height="34" as="geometry" />
        </mxCell>
        <mxCell id="2ytM8fm2wGrNWbEA7cSL-54" value="Step d" style="whiteSpace=wrap;strokeWidth=2;" vertex="1" parent="1">
          <mxGeometry x="421" y="488" width="61" height="34" as="geometry" />
        </mxCell>
        <mxCell id="2ytM8fm2wGrNWbEA7cSL-55" value="PathLabel" style="whiteSpace=wrap;strokeWidth=2;" vertex="1" parent="1">
          <mxGeometry x="156" y="45" width="86" height="34" as="geometry" />
        </mxCell>
        <mxCell id="2ytM8fm2wGrNWbEA7cSL-56" value="StepLabel" style="whiteSpace=wrap;strokeWidth=2;" vertex="1" parent="1">
          <mxGeometry x="292" y="45" width="86" height="34" as="geometry" />
        </mxCell>
        <mxCell id="2ytM8fm2wGrNWbEA7cSL-57" value="SubgraphTitle" style="whiteSpace=wrap;strokeWidth=2;" vertex="1" parent="1">
          <mxGeometry x="428" y="45" width="114" height="34" as="geometry" />
        </mxCell>
        <mxCell id="2ytM8fm2wGrNWbEA7cSL-58" value="k" style="whiteSpace=wrap;strokeWidth=2;" vertex="1" parent="1">
          <mxGeometry x="243" y="597" width="24" height="34" as="geometry" />
        </mxCell>
        <mxCell id="2ytM8fm2wGrNWbEA7cSL-59" value="" style="curved=1;startArrow=none;endArrow=block;exitX=0.6212214408511063;exitY=1;entryX=0.4803059895833333;entryY=0;rounded=0;" edge="1" parent="1" source="2ytM8fm2wGrNWbEA7cSL-52" target="2ytM8fm2wGrNWbEA7cSL-51">
          <mxGeometry relative="1" as="geometry">
            <Array as="points">
              <mxPoint x="462" y="245" />
            </Array>
          </mxGeometry>
        </mxCell>
        <mxCell id="2ytM8fm2wGrNWbEA7cSL-60" value="" style="curved=1;startArrow=none;endArrow=block;exitX=0.4803059895833333;exitY=1;entryX=0.5011888586956522;entryY=0;rounded=0;" edge="1" parent="1" source="2ytM8fm2wGrNWbEA7cSL-51" target="2ytM8fm2wGrNWbEA7cSL-53">
          <mxGeometry relative="1" as="geometry">
            <Array as="points" />
          </mxGeometry>
        </mxCell>
        <mxCell id="2ytM8fm2wGrNWbEA7cSL-61" value="" style="curved=1;startArrow=none;endArrow=block;exitX=0.5011888586956522;exitY=1;entryX=0.5668026688134268;entryY=0;rounded=0;" edge="1" parent="1" source="2ytM8fm2wGrNWbEA7cSL-53" target="2ytM8fm2wGrNWbEA7cSL-54">
          <mxGeometry relative="1" as="geometry">
            <Array as="points">
              <mxPoint x="462" y="463" />
            </Array>
          </mxGeometry>
        </mxCell>
        <mxCell id="2ytM8fm2wGrNWbEA7cSL-62" value="" style="curved=1;startArrow=none;endArrow=block;exitX=0.33180545520231214;exitY=1;entryX=0.9963498975409836;entryY=0.2604638009049772;rounded=0;" edge="1" parent="1" source="2ytM8fm2wGrNWbEA7cSL-52" target="2ytM8fm2wGrNWbEA7cSL-49">
          <mxGeometry relative="1" as="geometry">
            <Array as="points">
              <mxPoint x="374" y="245" />
              <mxPoint x="374" y="354" />
            </Array>
          </mxGeometry>
        </mxCell>
        <mxCell id="2ytM8fm2wGrNWbEA7cSL-63" value="" style="curved=1;startArrow=none;endArrow=block;exitX=0.5004482581967213;exitY=1;entryX=0.23005403493364604;entryY=0;rounded=0;" edge="1" parent="1" source="2ytM8fm2wGrNWbEA7cSL-49" target="2ytM8fm2wGrNWbEA7cSL-54">
          <mxGeometry relative="1" as="geometry">
            <Array as="points">
              <mxPoint x="218" y="438" />
              <mxPoint x="411" y="463" />
            </Array>
          </mxGeometry>
        </mxCell>
        <mxCell id="2ytM8fm2wGrNWbEA7cSL-64" value="" style="curved=1;startArrow=none;endArrow=block;exitX=0.4911221590909091;exitY=1;entryX=0.5132472826086957;entryY=0;rounded=0;" edge="1" parent="1" source="2ytM8fm2wGrNWbEA7cSL-45" target="2ytM8fm2wGrNWbEA7cSL-44">
          <mxGeometry relative="1" as="geometry">
            <Array as="points" />
          </mxGeometry>
        </mxCell>
        <mxCell id="2ytM8fm2wGrNWbEA7cSL-65" value="" style="curved=1;startArrow=none;endArrow=block;exitX=0.5132472826086957;exitY=1;entryX=0.4918619791666667;entryY=0;rounded=0;" edge="1" parent="1" source="2ytM8fm2wGrNWbEA7cSL-44" target="2ytM8fm2wGrNWbEA7cSL-46">
          <mxGeometry relative="1" as="geometry">
            <Array as="points" />
          </mxGeometry>
        </mxCell>
        <mxCell id="2ytM8fm2wGrNWbEA7cSL-66" value="" style="curved=1;startArrow=none;endArrow=block;exitX=0.4918619791666667;exitY=1;entryX=0.4911221590909091;entryY=0;rounded=0;" edge="1" parent="1" source="2ytM8fm2wGrNWbEA7cSL-46" target="2ytM8fm2wGrNWbEA7cSL-47">
          <mxGeometry relative="1" as="geometry">
            <Array as="points" />
          </mxGeometry>
        </mxCell>
        <mxCell id="2ytM8fm2wGrNWbEA7cSL-67" value="" style="curved=1;startArrow=none;endArrow=block;exitX=0.4911221590909091;exitY=1;entryX=0.7227355337626852;entryY=0;rounded=0;" edge="1" parent="1" source="2ytM8fm2wGrNWbEA7cSL-47" target="2ytM8fm2wGrNWbEA7cSL-54">
          <mxGeometry relative="1" as="geometry">
            <Array as="points">
              <mxPoint x="624" y="438" />
              <mxPoint x="485" y="463" />
            </Array>
          </mxGeometry>
        </mxCell>
        <mxCell id="2ytM8fm2wGrNWbEA7cSL-68" value="" style="curved=1;startArrow=none;endArrow=block;exitX=0.48863636363636365;exitY=1;entryX=0.48863636363636365;entryY=0;rounded=0;" edge="1" parent="1" source="2ytM8fm2wGrNWbEA7cSL-40" target="2ytM8fm2wGrNWbEA7cSL-39">
          <mxGeometry relative="1" as="geometry">
            <Array as="points" />
          </mxGeometry>
        </mxCell>
        <mxCell id="2ytM8fm2wGrNWbEA7cSL-69" value="" style="curved=1;startArrow=none;endArrow=block;exitX=0.48863636363636365;exitY=1;entryX=0.51;entryY=0;rounded=0;" edge="1" parent="1" source="2ytM8fm2wGrNWbEA7cSL-39" target="2ytM8fm2wGrNWbEA7cSL-41">
          <mxGeometry relative="1" as="geometry">
            <Array as="points" />
          </mxGeometry>
        </mxCell>
        <mxCell id="2ytM8fm2wGrNWbEA7cSL-70" value="" style="curved=1;startArrow=none;endArrow=block;exitX=0.51;exitY=1;entryX=0.4895833333333333;entryY=0;rounded=0;" edge="1" parent="1" source="2ytM8fm2wGrNWbEA7cSL-41" target="2ytM8fm2wGrNWbEA7cSL-42">
          <mxGeometry relative="1" as="geometry">
            <Array as="points" />
          </mxGeometry>
        </mxCell>
        <mxCell id="2ytM8fm2wGrNWbEA7cSL-71" value="" style="curved=1;startArrow=none;endArrow=block;exitX=0.7214781746031745;exitY=1;entryX=0.09734521370023407;entryY=0;rounded=0;" edge="1" parent="1" source="2ytM8fm2wGrNWbEA7cSL-42" target="2ytM8fm2wGrNWbEA7cSL-54">
          <mxGeometry relative="1" as="geometry">
            <Array as="points">
              <mxPoint x="88" y="438" />
              <mxPoint x="391" y="463" />
            </Array>
          </mxGeometry>
        </mxCell>
        <mxCell id="2ytM8fm2wGrNWbEA7cSL-72" value="" style="curved=1;startArrow=none;endArrow=block;exitX=0.5004482581967213;exitY=1;entryX=0.9803059895833334;entryY=0.42475365780829993;rounded=0;" edge="1" parent="1" source="2ytM8fm2wGrNWbEA7cSL-54" target="2ytM8fm2wGrNWbEA7cSL-58">
          <mxGeometry relative="1" as="geometry">
            <Array as="points">
              <mxPoint x="452" y="572" />
            </Array>
          </mxGeometry>
        </mxCell>
        <mxCell id="2ytM8fm2wGrNWbEA7cSL-73" value="" style="curved=1;startArrow=none;endArrow=block;exitX=0.32093253968253954;exitY=1;entryX=-0.019694010416666668;entryY=0.4222993196131831;rounded=0;" edge="1" parent="1" source="2ytM8fm2wGrNWbEA7cSL-42" target="2ytM8fm2wGrNWbEA7cSL-58">
          <mxGeometry relative="1" as="geometry">
            <Array as="points">
              <mxPoint x="64" y="438" />
              <mxPoint x="64" y="572" />
            </Array>
          </mxGeometry>
        </mxCell>
      </root>
    </mxGraphModel>
  </diagram>
</mxfile>
